<svg width="70pt" height="70pt" version="1.1" viewBox="0 0 700 700"
    xmlns="http://www.w3.org/2000/svg"
    xmlns:xlink="http://www.w3.org/1999/xlink" style="fill:#00a">
    <defs>
        <symbol id="s" overflow="visible">
            <path d="m28-1.6719c-1.4375 0.75-2.9453 1.3125-4.5156 1.6875-1.5625 0.38281-3.1953 0.57812-4.8906 0.57812-5.0742 0-9.0938-1.4141-12.062-4.25-2.9688-2.8438-4.4531-6.6914-4.4531-11.547 0-4.875 1.4844-8.7266 4.4531-11.562 2.9688-2.832 6.9883-4.25 12.062-4.25 1.6953 0 3.3281 0.19531 4.8906 0.57812 1.5703 0.375 3.0781 0.9375 4.5156 1.6875v6.2969c-1.4609-0.98828-2.8984-1.7109-4.3125-2.1719-1.4062-0.46875-2.8984-0.70312-4.4688-0.70312-2.8047 0-5.0078 0.90234-6.6094 2.7031-1.6055 1.793-2.4062 4.2656-2.4062 7.4219 0 3.1484 0.80078 5.6172 2.4062 7.4062 1.6016 1.793 3.8047 2.6875 6.6094 2.6875 1.5703 0 3.0625-0.22656 4.4688-0.6875 1.4141-0.45703 2.8516-1.1875 4.3125-2.1875z"/>
        </symbol>
        <symbol id="c" overflow="visible">
            <path d="m20.484-16.641c-0.63672-0.28906-1.2734-0.50781-1.9062-0.65625-0.625-0.14453-1.2617-0.21875-1.9062-0.21875-1.875 0-3.3242 0.60547-4.3438 1.8125-1.0117 1.2109-1.5156 2.9336-1.5156 5.1719v10.531h-7.2969v-22.859h7.2969v3.75c0.9375-1.4883 2.0156-2.5781 3.2344-3.2656s2.6758-1.0312 4.375-1.0312c0.25 0 0.51562 0.011719 0.79688 0.03125 0.28906 0.023438 0.70703 0.0625 1.25 0.125z"/>
        </symbol>
        <symbol id="b" overflow="visible">
            <path d="m26.328-11.484v2.0781h-17.078c0.17578 1.7109 0.78906 2.9961 1.8438 3.8594 1.0625 0.85547 2.5469 1.2812 4.4531 1.2812 1.5391 0 3.1133-0.22266 4.7188-0.67188 1.6133-0.45703 3.2734-1.1484 4.9844-2.0781v5.625c-1.7305 0.65625-3.4609 1.1523-5.1875 1.4844-1.7305 0.33203-3.4609 0.5-5.1875 0.5-4.1367 0-7.3516-1.0508-9.6406-3.1562-2.293-2.1016-3.4375-5.0508-3.4375-8.8438 0-3.7266 1.125-6.6602 3.375-8.7969 2.25-2.1328 5.3477-3.2031 9.2969-3.2031 3.5938 0 6.4688 1.0859 8.625 3.25 2.1562 2.1562 3.2344 5.0469 3.2344 8.6719zm-7.5156-2.4375c0-1.3828-0.40625-2.5-1.2188-3.3438-0.80469-0.85156-1.8594-1.2812-3.1719-1.2812-1.4062 0-2.5547 0.40234-3.4375 1.2031-0.88672 0.79297-1.4375 1.9336-1.6562 3.4219z"/>
        </symbol>
        <symbol id="j" overflow="visible">
            <path d="m13.75-10.281c-1.5234 0-2.668 0.26172-3.4375 0.78125-0.77344 0.51172-1.1562 1.2734-1.1562 2.2812 0 0.91797 0.30469 1.6406 0.92188 2.1719 0.625 0.52344 1.4883 0.78125 2.5938 0.78125 1.375 0 2.5312-0.48828 3.4688-1.4688 0.9375-0.98828 1.4062-2.2266 1.4062-3.7188v-0.82812zm11.172-2.7656v13.047h-7.375v-3.3906c-0.98047 1.3867-2.0859 2.3984-3.3125 3.0312-1.2188 0.63281-2.7031 0.95312-4.4531 0.95312-2.375 0-4.3047-0.6875-5.7812-2.0625-1.4688-1.3828-2.2031-3.1797-2.2031-5.3906 0-2.6758 0.92188-4.6406 2.7656-5.8906 1.8438-1.2578 4.7383-1.8906 8.6875-1.8906h4.2969v-0.5625c0-1.1562-0.46094-2-1.375-2.5312-0.90625-0.53906-2.3242-0.8125-4.25-0.8125-1.5625 0-3.0234 0.15625-4.375 0.46875-1.3438 0.3125-2.5938 0.78125-3.75 1.4062v-5.5781c1.5625-0.375 3.1289-0.66016 4.7031-0.85938 1.582-0.19531 3.1641-0.29688 4.75-0.29688 4.1133 0 7.0859 0.8125 8.9219 2.4375 1.832 1.625 2.75 4.2656 2.75 7.9219z"/>
        </symbol>
        <symbol id="a" overflow="visible">
            <path d="m11.484-29.344v6.4844h7.5312v5.2188h-7.5312v9.7031c0 1.0625 0.20703 1.7812 0.625 2.1562 0.42578 0.375 1.2695 0.5625 2.5312 0.5625h3.75v5.2188h-6.2656c-2.8867 0-4.9336-0.59766-6.1406-1.7969-1.1992-1.207-1.7969-3.2539-1.7969-6.1406v-9.7031h-3.6406v-5.2188h3.6406v-6.4844z"/>
        </symbol>
        <symbol id="i" overflow="visible">
            <path d="m19.062-19.516v-12.234h7.3438v31.75h-7.3438v-3.3125c-1.0117 1.3555-2.1211 2.3438-3.3281 2.9688-1.2109 0.625-2.6094 0.9375-4.2031 0.9375-2.8125 0-5.125-1.1172-6.9375-3.3594-1.8125-2.2383-2.7188-5.1172-2.7188-8.6406 0-3.5195 0.90625-6.3984 2.7188-8.6406 1.8125-2.2383 4.125-3.3594 6.9375-3.3594 1.5703 0 2.9688 0.32031 4.1875 0.95312 1.2188 0.625 2.332 1.6055 3.3438 2.9375zm-4.8125 14.797c1.5625 0 2.7539-0.56641 3.5781-1.7031 0.82031-1.1445 1.2344-2.8047 1.2344-4.9844 0-2.1758-0.41406-3.8359-1.2344-4.9844-0.82422-1.1445-2.0156-1.7188-3.5781-1.7188-1.5547 0-2.7422 0.57422-3.5625 1.7188-0.82422 1.1484-1.2344 2.8086-1.2344 4.9844 0 2.1797 0.41016 3.8398 1.2344 4.9844 0.82031 1.1367 2.0078 1.7031 3.5625 1.7031z"/>
        </symbol>
        <symbol id="h" overflow="visible">
            <path d="m15.672-4.7188c1.5625 0 2.7539-0.56641 3.5781-1.7031 0.82031-1.1445 1.2344-2.8047 1.2344-4.9844 0-2.1758-0.41406-3.8359-1.2344-4.9844-0.82422-1.1445-2.0156-1.7188-3.5781-1.7188s-2.7656 0.57812-3.6094 1.7344c-0.83594 1.1484-1.25 2.8047-1.25 4.9688 0 2.168 0.41406 3.8242 1.25 4.9688 0.84375 1.1484 2.0469 1.7188 3.6094 1.7188zm-4.8594-14.797c1.0078-1.332 2.125-2.3125 3.3438-2.9375 1.2266-0.63281 2.6406-0.95312 4.2344-0.95312 2.8125 0 5.125 1.1211 6.9375 3.3594 1.8125 2.2422 2.7188 5.1211 2.7188 8.6406 0 3.5234-0.90625 6.4023-2.7188 8.6406-1.8125 2.2422-4.125 3.3594-6.9375 3.3594-1.5938 0-3.0078-0.32031-4.2344-0.95312-1.2188-0.63281-2.3359-1.6172-3.3438-2.9531v3.3125h-7.2969v-31.75h7.2969z"/>
        </symbol>
        <symbol id="g" overflow="visible">
            <path d="m0.51562-22.859h7.2969l6.1406 15.516 5.2344-15.516h7.2969l-9.6094 25.016c-0.96875 2.5508-2.0938 4.332-3.375 5.3438-1.2812 1.0078-2.9805 1.5156-5.0938 1.5156h-4.2188v-4.7969h2.2812c1.2383 0 2.1406-0.19922 2.7031-0.59375 0.5625-0.38672 1-1.0898 1.3125-2.1094l0.20312-0.64062z"/>
        </symbol>
        <symbol id="f" overflow="visible">
            <path d="m0.20312-30.469h7.9062l8.0781 22.484 8.0625-22.484h7.8906l-11.281 30.469h-9.375z"/>
        </symbol>
        <symbol id="r" overflow="visible">
            <path d="m21.984-22.141v5.9531c-1-0.67578-2-1.1758-3-1.5-1-0.33203-2.0391-0.5-3.1094-0.5-2.043 0-3.6328 0.60156-4.7656 1.7969-1.1367 1.1875-1.7031 2.8516-1.7031 4.9844 0 2.1367 0.56641 3.8047 1.7031 5 1.1328 1.1875 2.7227 1.7812 4.7656 1.7812 1.1445 0 2.2266-0.17188 3.25-0.51562 1.0312-0.34375 1.9844-0.84766 2.8594-1.5156v5.9844c-1.1484 0.41797-2.3086 0.72656-3.4844 0.9375-1.1797 0.21875-2.3594 0.32812-3.5469 0.32812-4.1172 0-7.3398-1.0547-9.6719-3.1719-2.3242-2.1133-3.4844-5.0547-3.4844-8.8281 0-3.7695 1.1602-6.7109 3.4844-8.8281 2.332-2.1133 5.5547-3.1719 9.6719-3.1719 1.1953 0 2.3789 0.10547 3.5469 0.3125 1.1641 0.21094 2.3281 0.52734 3.4844 0.95312z"/>
        </symbol>
        <symbol id="e" overflow="visible">
            <path d="m14.391-18.188c-1.625 0-2.8672 0.58594-3.7188 1.75-0.84375 1.168-1.2656 2.8438-1.2656 5.0312s0.42188 3.8672 1.2656 5.0312c0.85156 1.168 2.0938 1.75 3.7188 1.75 1.5938 0 2.8125-0.58203 3.6562-1.75 0.84375-1.1641 1.2656-2.8438 1.2656-5.0312s-0.42188-3.8633-1.2656-5.0312c-0.84375-1.1641-2.0625-1.75-3.6562-1.75zm0-5.2188c3.9258 0 6.9922 1.0625 9.2031 3.1875 2.2188 2.1172 3.3281 5.0547 3.3281 8.8125 0 3.75-1.1094 6.6875-3.3281 8.8125-2.2109 2.125-5.2773 3.1875-9.2031 3.1875-3.9492 0-7.0391-1.0625-9.2656-3.1875-2.2188-2.125-3.3281-5.0625-3.3281-8.8125 0-3.7578 1.1094-6.6953 3.3281-8.8125 2.2266-2.125 5.3164-3.1875 9.2656-3.1875z"/>
        </symbol>
        <symbol id="q" overflow="visible">
            <path d="m21.375-22.141v5.5469c-1.5742-0.65625-3.0898-1.1445-4.5469-1.4688-1.4492-0.32031-2.8203-0.48438-4.1094-0.48438-1.3867 0-2.418 0.17188-3.0938 0.51562-0.67969 0.34375-1.0156 0.88281-1.0156 1.6094 0 0.58594 0.25391 1.0312 0.76562 1.3438 0.50781 0.3125 1.4258 0.54297 2.75 0.6875l1.2812 0.1875c3.7383 0.48047 6.2539 1.2656 7.5469 2.3594 1.3008 1.0859 1.9531 2.7891 1.9531 5.1094 0 2.4375-0.90234 4.2734-2.7031 5.5-1.793 1.2188-4.4766 1.8281-8.0469 1.8281-1.5117 0-3.0742-0.12109-4.6875-0.35938-1.6055-0.23828-3.2578-0.59766-4.9531-1.0781v-5.5469c1.4453 0.71094 2.9375 1.2422 4.4688 1.5938 1.5312 0.35547 3.0859 0.53125 4.6719 0.53125 1.4258 0 2.5-0.19531 3.2188-0.59375 0.71875-0.39453 1.0781-0.97656 1.0781-1.75 0-0.65625-0.25-1.1406-0.75-1.4531-0.49219-0.32031-1.4766-0.57031-2.9531-0.75l-1.2969-0.17188c-3.25-0.40625-5.5312-1.1562-6.8438-2.25-1.3047-1.1016-1.9531-2.7812-1.9531-5.0312 0-2.4141 0.82812-4.207 2.4844-5.375 1.6641-1.1758 4.2109-1.7656 7.6406-1.7656 1.3516 0 2.7695 0.10547 4.25 0.3125 1.4766 0.19922 3.0938 0.51562 4.8438 0.95312z"/>
        </symbol>
        <symbol id="d" overflow="visible">
            <path d="m3.8438-30.469h13.031c3.875 0 6.8477 0.85938 8.9219 2.5781 2.082 1.7188 3.125 4.1719 3.125 7.3594 0 3.1992-1.043 5.6562-3.125 7.375-2.0742 1.7188-5.0469 2.5781-8.9219 2.5781h-5.1875v10.578h-7.8438zm7.8438 5.6875v8.5156h4.3594c1.5195 0 2.6914-0.36719 3.5156-1.1094 0.83203-0.73828 1.25-1.7891 1.25-3.1562 0-1.3633-0.41797-2.4102-1.25-3.1406-0.82422-0.73828-1.9961-1.1094-3.5156-1.1094z"/>
        </symbol>
        <symbol id="p" overflow="visible">
            <path d="m3.5156-22.859h7.2969v22.859h-7.2969zm0-8.8906h7.2969v5.9531h-7.2969z"/>
        </symbol>
        <symbol id="o" overflow="visible">
            <path d="m26.484-13.922v13.922h-7.3438v-10.656c0-1.9688-0.046875-3.3281-0.14062-4.0781-0.085938-0.75-0.23438-1.3008-0.45312-1.6562-0.28125-0.47656-0.66797-0.84766-1.1562-1.1094-0.49219-0.25781-1.0469-0.39062-1.6719-0.39062-1.5312 0-2.7344 0.58984-3.6094 1.7656-0.86719 1.168-1.2969 2.793-1.2969 4.875v11.25h-7.2969v-22.859h7.2969v3.3438c1.1016-1.332 2.2734-2.3125 3.5156-2.9375 1.2383-0.63281 2.6016-0.95312 4.0938-0.95312 2.6445 0 4.6484 0.8125 6.0156 2.4375 1.3633 1.6172 2.0469 3.9648 2.0469 7.0469z"/>
        </symbol>
        <symbol id="n" overflow="visible">
            <path d="m18.547-31.75v4.7969h-4.0312c-1.043 0-1.7656 0.1875-2.1719 0.5625-0.40625 0.36719-0.60938 1.0117-0.60938 1.9375v1.5938h6.25v5.2188h-6.25v17.641h-7.3125v-17.641h-3.625v-5.2188h3.625v-1.5938c0-2.4883 0.69141-4.3281 2.0781-5.5156 1.3945-1.1875 3.5469-1.7812 6.4531-1.7812z"/>
        </symbol>
        <symbol id="m" overflow="visible">
            <path d="m26.484-13.922v13.922h-7.3438v-10.609c0-2-0.046875-3.375-0.14062-4.125-0.085938-0.75-0.23438-1.3008-0.45312-1.6562-0.28125-0.47656-0.66797-0.84766-1.1562-1.1094-0.49219-0.25781-1.0469-0.39062-1.6719-0.39062-1.5312 0-2.7344 0.58984-3.6094 1.7656-0.86719 1.168-1.2969 2.793-1.2969 4.875v11.25h-7.2969v-31.75h7.2969v12.234c1.1016-1.332 2.2734-2.3125 3.5156-2.9375 1.2383-0.63281 2.6016-0.95312 4.0938-0.95312 2.6445 0 4.6484 0.8125 6.0156 2.4375 1.3633 1.6172 2.0469 3.9648 2.0469 7.0469z"/>
        </symbol>
        <symbol id="l" overflow="visible">
            <path d="m3.8438-30.469h8.7656l11.078 20.891v-20.891h7.4531v30.469h-8.7656l-11.094-20.906v20.906h-7.4375z"/>
        </symbol>
        <symbol id="k" overflow="visible">
            <path d="m3.5156-22.859h7.2969v22.453c0 3.0625-0.73438 5.3945-2.2031 7-1.4688 1.6133-3.6016 2.4219-6.3906 2.4219h-3.6094v-4.7969h1.2656c1.3828 0 2.3359-0.3125 2.8594-0.9375 0.51953-0.625 0.78125-1.8555 0.78125-3.6875zm0-8.8906h7.2969v5.9531h-7.2969z"/>
        </symbol>
    </defs>
    <g>
        <path d="m356.94 289.14v29.574c8.8281-0.91016 17.09-5.3281 17.09-14.129 0-9.5078-7.3086-12.508-17.09-15.445z"/>
        <path d="m330.64 251.26c0 9.0312 6.4961 11.887 15.777 14.871v-28.43c-8.4219 0.75391-15.777 5.1797-15.777 13.559z"/>
        <path d="m350.04 180.93c-54.629 0-99.074 44.449-99.074 99.078 0 54.629 44.445 99.078 99.074 99.078s99.078-44.449 99.078-99.078c0-54.629-44.445-99.078-99.078-99.078zm6.9062 155.36v11.828h-10.52v-11.996c-15.012-1.5312-28.48-7.5039-40.422-17.906l11.996-14.297c9.1992 7.9961 18.676 12.758 28.426 14.297v-31.883c-21.5-5.1328-35.82-12.18-35.82-33.109 0-19.988 15.637-32.07 35.82-33.113v-8.2188h10.52v8.3789c12.047 0.88281 23.441 4.9883 34.176 12.328l-10.684 15.117c-7.2266-5.1484-15.062-8.3242-23.496-9.5352v30.891h0.49219c21.051 4.9492 36.645 12.227 36.645 33.934 0.003906 20.52-16.324 32.262-37.133 33.285z"/>
        <path d="m350.04 86.727c-2.3086 0-4.1797 1.8711-4.1797 4.1797v16.715c0 2.3086 1.8711 4.1797 4.1797 4.1797s4.1797-1.8711 4.1797-4.1797v-16.715c0-2.3125-1.8672-4.1797-4.1797-4.1797z"/>
        <path d="m184.18 189.08 14.477 8.3594c1.9922 1.1523 4.5547 0.47266 5.7109-1.5312 1.1562-2 0.46875-4.5547-1.5312-5.7109l-14.477-8.3594c-1.9961-1.1602-4.5547-0.47266-5.7109 1.5312-1.1562 2-0.46875 4.5547 1.5312 5.7109z"/>
        <path d="m173.89 386.57-11.199 6.4336c4.5977 12.035 0 25.996-11.535 32.598-12.727 7.4258-29.035 2.9414-36.359-9.7812-7.3906-12.719-3.0117-29.098 9.7773-36.359 11.375-6.6367 25.66-3.8008 33.934 6.2695l11.203-6.4297c2.0078-1.1719 4.5156-0.50391 5.6836 1.5039 1.1719 2.0039 0.50391 4.5977-1.5039 5.7656z"/>
        <path d="m204.36 364.12c-1.1602-2.0039-3.7188-2.6914-5.7109-1.5312l-14.477 8.3594c-2 1.1562-2.6836 3.7109-1.5312 5.7109 1.1562 2.0039 3.7188 2.6797 5.7109 1.5312l14.477-8.3594c2-1.1562 2.6875-3.7109 1.5312-5.7109z"/>
        <path d="m350.04 473.3c2.3086 0 4.1797-1.8711 4.1797-4.1797v-16.715c0-2.3086-1.8711-4.1797-4.1797-4.1797s-4.1797 1.8711-4.1797 4.1797v16.715c0.003906 2.3125 1.8711 4.1797 4.1797 4.1797z"/>
        <path d="m515.89 370.95-14.477-8.3594c-1.9961-1.1602-4.5547-0.47266-5.7109 1.5312-1.1562 2-0.46875 4.5547 1.5312 5.7109l14.477 8.3594c1.9922 1.1523 4.5547 0.47266 5.7109-1.5312 1.1562-2 0.46875-4.5547-1.5312-5.7109z"/>
        <path d="m485.93 196.73c-2 1.1562-2.6836 3.7109-1.5312 5.7109 1.1562 2.0039 3.7188 2.6797 5.7109 1.5312l11.875-6.8555c2-1.1562 2.6836-3.7109 1.5312-5.7109-1.1562-2.0078-3.7188-2.6914-5.7109-1.5312z"/>
        <path d="m513.86 190.26 11.875-6.8555c2-1.1562 2.6836-3.7109 1.5312-5.7109-1.1562-2.0039-3.7188-2.6836-5.7109-1.5312l-11.875 6.8555c-2 1.1562-2.6836 3.7109-1.5312 5.7109 1.1602 2.0039 3.7227 2.6797 5.7109 1.5312z"/>
        <path d="m175.39 179.2c-1.1328 2.0156-3.7812 2.6953-5.6836 1.5039l-11.199-6.4375c-8.3438 10.293-22.961 12.754-33.934 6.3516-12.859-7.4688-17.141-23.766-9.7773-36.438 7.4375-12.789 23.77-17.039 36.359-9.6953 11.531 6.5469 16.207 20.434 11.535 32.512l11.199 6.5195c2.0039 1.0859 2.6719 3.6797 1.5 5.6836z"/>
        <path d="m595.06 253.34c-13.289 0-24.238 9.7812-26.242 22.484h-73.387c-0.66797-23.402-6.7695-45.555-17.301-64.945l0.082032-0.082031c2.0078-1.0859 2.6758-3.6797 1.5859-5.6836-1.168-2.0078-3.7617-2.6758-5.7656-1.5039l-0.16797 0.085937c-11.953-19.223-28.25-35.523-47.559-47.473l36.773-63.691c13.172 5.1211 26.379-0.81641 32.516-11.367 7.3555-12.703 3.0078-29.086-9.7773-36.359-12.84-7.4883-29.09-2.8008-36.359 9.6953-6.4492 11.102-4.1758 25.434 6.3516 33.934l-36.609 63.441c-19.473-10.449-41.539-16.551-65.023-17.219v-10.281c0-2.3398-1.8398-4.1797-4.1797-4.1797-2.2578 0-4.1797 1.8398-4.1797 4.1797v10.281c-23.402 0.58594-45.469 6.6875-64.945 17.219l-36.609-63.441c10.395-8.3945 12.832-22.512 6.3516-33.934-7.1836-12.355-23.227-17.246-36.438-9.6953-12.594 7.2461-17.145 23.543-9.6953 36.359 6.0078 10.328 18.918 16.512 32.516 11.367l36.773 63.691c-19.309 11.949-35.605 28.246-47.559 47.473l-8.9453-5.0977c-1.9219-1.1719-4.5156-0.5-5.6836 1.5039-1.1719 2.0078-0.41797 4.5117 1.5039 5.6836l8.8594 5.0977c-10.527 19.391-16.629 41.539-17.301 64.941h-73.383c-2.0078-12.703-12.957-22.484-26.242-22.484-14.715 0-26.664 11.953-26.664 26.664s11.953 26.664 26.664 26.664c13.289 0 24.238-9.7812 26.242-22.484h73.387c0.66797 23.484 6.7695 45.555 17.301 65.027l-8.8633 5.0156c-1.9219 1.168-2.6758 3.7617-1.5039 5.6836 1.1758 2.0898 3.9023 2.6055 5.6836 1.5898l8.9453-5.1836c11.953 19.309 28.25 35.523 47.559 47.473l-36.773 63.691c-13.91-4.8906-26.441 0.92969-32.516 11.367-7.3984 12.73-3 28.965 9.6953 36.441 12.625 7.2148 29.016 2.9922 36.441-9.7812 6.4648-11.395 4.0742-25.516-6.3516-33.934l36.609-63.441c19.477 10.531 41.539 16.633 64.945 17.219l-0.003907 10.367c0 2.2578 1.9219 4.1797 4.1797 4.1797 2.3398 0 4.1797-1.9219 4.1797-4.1797v-10.363c23.488-0.66797 45.551-6.6875 65.023-17.219l36.609 63.441c-10.52 8.4961-12.805 22.828-6.3516 33.934 7.5781 13.027 24.207 16.871 36.359 9.7812 12.785-7.3555 17.133-23.656 9.7773-36.441-5.9961-10.305-18.625-16.387-32.516-11.367l-36.773-63.691c19.309-11.953 35.605-28.168 47.559-47.473l8.8594 5.1836c2.0273 1.0117 4.4609 0.50391 5.7656-1.5898 1.1719-2.0078 0.41797-4.5156-1.5859-5.6836l-8.7773-5.0977c10.531-19.391 16.633-41.457 17.301-64.941h73.387c2.0078 12.703 12.957 22.484 26.242 22.484 14.629-0.007813 26.582-11.961 26.582-26.672s-11.953-26.664-26.578-26.664zm-245.06 134.15c-59.176 0-107.4-48.227-107.4-107.49 0-59.258 48.227-107.4 107.4-107.4 59.258 0 107.48 48.145 107.48 107.4s-48.227 107.49-107.48 107.49z"/>
        <path d="m531.87 175.02c-1.0859-2.0078-0.41797-4.5977 1.5898-5.6836l3.9297-2.3398c-4.8633-12.566 0.40625-26.195 11.535-32.512 12.836-7.4883 29.09-2.8008 36.359 9.6953 7.3555 12.66 3.0977 28.961-9.7773 36.441-10.934 6.3789-25.555 3.9844-33.934-6.3516l-3.9336 2.2539c-1.7148 1.0742-4.3672 0.73437-5.7695-1.5039z"/>
        <path d="m585.28 415.82c-7.3242 12.719-23.629 17.207-36.359 9.7812-11.535-6.6016-16.129-20.562-11.535-32.598l-11.195-6.4375c-2.0078-1.1719-2.6758-3.7617-1.5039-5.7695s3.6758-2.6758 5.6836-1.5039l11.199 6.4375c8.2812-10.074 22.562-12.902 33.934-6.2695 12.82 7.2773 17.152 23.672 9.7773 36.359z"/>
        <path d="m376.66 35.02c0 13.289-9.7773 24.156-22.484 26.242v12.961c0 2.2578-1.8398 4.1797-4.1797 4.1797-2.2578 0-4.1797-1.9219-4.1797-4.1797v-12.957c-12.703-2.0898-22.402-12.957-22.402-26.242 0-14.711 11.957-26.664 26.582-26.664 14.707 0 26.664 11.953 26.664 26.66z"/>
        <path d="m376.66 524.98c0 14.707-11.957 26.66-26.664 26.66-14.625 0-26.582-11.953-26.582-26.664 0-13.207 9.6953-24.156 22.402-26.16v-12.953c0-2.3398 1.9219-4.1797 4.1797-4.1797 2.3398 0 4.1797 1.8398 4.1797 4.1797v12.957c12.703 2.0039 22.484 12.953 22.484 26.16z"/>
    </g>
</svg>

